<svg width="2759" height="593" viewBox="0 0 2759 593" fill="none" xmlns="http://www.w3.org/2000/svg">
<rect width="622" height="593" rx="93" fill="#2CB67D" fill-opacity="0.2"/>
<g clip-path="url(#clip0_2489_29)">
<path d="M235.903 392.548L212.441 369.704C205.987 363.42 203.709 354.327 206.595 345.899C208.872 339.32 211.91 330.744 215.554 320.912H135.223C128.693 320.912 122.619 317.511 119.354 311.966C116.089 306.422 116.165 299.621 119.505 294.15L159.368 228.724C169.238 212.534 187.081 202.627 206.367 202.627H268.855C270.678 199.67 272.5 196.935 274.322 194.273C336.507 104.968 429.139 102.011 484.414 111.918C493.222 113.47 500.055 120.198 501.726 128.773C511.9 182.667 508.787 272.785 417.142 333.332C414.485 335.106 411.599 336.88 408.562 338.654V399.497C408.562 418.275 398.388 435.722 381.76 445.258L314.564 484.071C308.945 487.323 301.96 487.397 296.265 484.218C290.571 481.04 287.078 475.199 287.078 468.767V389.517C276.372 393.139 267.033 396.096 259.972 398.314C251.468 400.976 242.205 398.684 235.827 392.548H235.903ZM408.562 232.198C416.617 232.198 424.342 229.083 430.038 223.537C435.734 217.991 438.933 210.47 438.933 202.627C438.933 194.784 435.734 187.263 430.038 181.717C424.342 176.172 416.617 173.056 408.562 173.056C400.507 173.056 392.782 176.172 387.087 181.717C381.391 187.263 378.191 194.784 378.191 202.627C378.191 210.47 381.391 217.991 387.087 223.537C392.782 229.083 400.507 232.198 408.562 232.198Z" fill="#1ECD85"/>
</g>
<path d="M810.506 404.486C796.917 404.486 784.405 400.923 772.97 393.797C761.618 386.671 752.504 375.858 745.626 361.357C738.832 346.857 735.435 328.586 735.435 306.545C735.435 283.51 738.998 264.784 746.124 250.366C753.332 235.949 762.613 225.384 773.964 218.673C785.399 211.961 797.414 208.605 810.009 208.605C819.455 208.605 827.741 210.262 834.866 213.577C841.992 216.808 847.958 221.158 852.764 226.627C857.57 232.013 861.216 237.937 863.702 244.401H864.696V147.455H933.304V402H865.193V370.679H863.702C861.05 377.142 857.239 382.942 852.267 388.08C847.378 393.134 841.412 397.153 834.369 400.136C827.409 403.036 819.455 404.486 810.506 404.486ZM835.861 351.787C842.158 351.787 847.544 349.964 852.018 346.318C856.576 342.589 860.056 337.369 862.459 330.658C864.945 323.863 866.188 315.826 866.188 306.545C866.188 297.099 864.945 289.021 862.459 282.309C860.056 275.514 856.576 270.336 852.018 266.773C847.544 263.127 842.158 261.304 835.861 261.304C829.563 261.304 824.178 263.127 819.703 266.773C815.312 270.336 811.914 275.514 809.511 282.309C807.191 289.021 806.031 297.099 806.031 306.545C806.031 315.991 807.191 324.112 809.511 330.906C811.914 337.618 815.312 342.797 819.703 346.442C824.178 350.005 829.563 351.787 835.861 351.787ZM973.987 402V211.091H1042.59V402H973.987ZM1008.29 191.205C999.01 191.205 991.056 188.139 984.427 182.007C977.798 175.875 974.484 168.501 974.484 159.884C974.484 151.266 977.798 143.892 984.427 137.76C991.056 131.628 999.01 128.562 1008.29 128.562C1017.65 128.562 1025.61 131.628 1032.15 137.76C1038.78 143.892 1042.1 151.266 1042.1 159.884C1042.1 168.501 1038.78 175.875 1032.15 182.007C1025.61 188.139 1017.65 191.205 1008.29 191.205ZM1176.53 477.568C1157.38 477.568 1140.98 474.834 1127.31 469.365C1113.72 463.979 1103.15 456.522 1095.61 446.993C1088.16 437.547 1083.97 426.692 1083.06 414.429H1149.18C1149.84 418.489 1151.5 421.762 1154.15 424.248C1156.8 426.734 1160.2 428.515 1164.34 429.592C1168.57 430.752 1173.29 431.332 1178.51 431.332C1187.38 431.332 1194.71 429.178 1200.51 424.869C1206.4 420.561 1209.34 412.772 1209.34 401.503V369.188H1207.35C1204.86 375.651 1201.05 381.161 1195.91 385.718C1190.78 390.192 1184.6 393.631 1177.4 396.034C1170.19 398.354 1162.27 399.514 1153.66 399.514C1140.07 399.514 1127.56 396.366 1116.12 390.068C1104.77 383.771 1095.65 373.786 1088.78 360.114C1081.98 346.442 1078.59 328.586 1078.59 306.545C1078.59 283.51 1082.15 264.784 1089.27 250.366C1096.48 235.949 1105.76 225.384 1117.11 218.673C1128.55 211.961 1140.56 208.605 1153.16 208.605C1162.6 208.605 1170.89 210.262 1178.02 213.577C1185.14 216.808 1191.11 221.158 1195.91 226.627C1200.72 232.013 1204.37 237.937 1206.85 244.401H1208.34V211.091H1276.95V401.503C1276.95 417.661 1272.77 431.374 1264.4 442.643C1256.11 453.995 1244.43 462.653 1229.35 468.619C1214.27 474.585 1196.66 477.568 1176.53 477.568ZM1179.01 350.793C1185.31 350.793 1190.69 349.053 1195.17 345.572C1199.73 342.009 1203.21 336.955 1205.61 330.409C1208.09 323.78 1209.34 315.826 1209.34 306.545C1209.34 297.099 1208.09 289.021 1205.61 282.309C1203.21 275.514 1199.73 270.336 1195.17 266.773C1190.69 263.127 1185.31 261.304 1179.01 261.304C1172.71 261.304 1167.33 263.127 1162.85 266.773C1158.46 270.336 1155.06 275.514 1152.66 282.309C1150.34 289.021 1149.18 297.099 1149.18 306.545C1149.18 315.991 1150.34 324.029 1152.66 330.658C1155.06 337.204 1158.46 342.217 1162.85 345.697C1167.33 349.094 1172.71 350.793 1179.01 350.793ZM1318.85 402V211.091H1387.45V402H1318.85ZM1353.15 191.205C1343.87 191.205 1335.92 188.139 1329.29 182.007C1322.66 175.875 1319.34 168.501 1319.34 159.884C1319.34 151.266 1322.66 143.892 1329.29 137.76C1335.92 131.628 1343.87 128.562 1353.15 128.562C1362.51 128.562 1370.47 131.628 1377.01 137.76C1383.64 143.892 1386.96 151.266 1386.96 159.884C1386.96 168.501 1383.64 175.875 1377.01 182.007C1370.47 188.139 1362.51 191.205 1353.15 191.205ZM1543.26 211.091V260.807H1417.48V211.091H1543.26ZM1441.84 165.352H1510.45V340.601C1510.45 343.252 1510.9 345.49 1511.81 347.312C1512.73 349.053 1514.13 350.378 1516.04 351.29C1517.95 352.118 1520.39 352.533 1523.37 352.533C1525.44 352.533 1527.85 352.284 1530.58 351.787C1533.4 351.29 1535.47 350.875 1536.8 350.544L1546.74 398.768C1543.67 399.68 1539.28 400.799 1533.57 402.124C1527.93 403.45 1521.22 404.32 1513.43 404.734C1497.69 405.563 1484.47 403.947 1473.78 399.887C1463.09 395.744 1455.06 389.24 1449.67 380.374C1444.28 371.508 1441.67 360.404 1441.84 347.064V165.352ZM1631.45 404.983C1619.27 404.983 1608.5 402.994 1599.14 399.017C1589.86 394.957 1582.56 388.825 1577.26 380.622C1571.96 372.419 1569.31 361.979 1569.31 349.301C1569.31 338.861 1571.09 329.953 1574.65 322.579C1578.21 315.121 1583.19 309.031 1589.57 304.308C1595.95 299.585 1603.36 295.981 1611.81 293.495C1620.35 291.009 1629.55 289.393 1639.41 288.648C1650.1 287.819 1658.67 286.825 1665.13 285.665C1671.68 284.422 1676.4 282.723 1679.3 280.569C1682.2 278.332 1683.65 275.39 1683.65 271.744V271.247C1683.65 266.276 1681.75 262.464 1677.94 259.812C1674.12 257.161 1669.24 255.835 1663.27 255.835C1656.72 255.835 1651.38 257.285 1647.24 260.185C1643.18 263.003 1640.73 267.353 1639.9 273.236H1576.76C1577.59 261.635 1581.28 250.946 1587.83 241.169C1594.46 231.309 1604.11 223.437 1616.79 217.554C1629.46 211.588 1645.29 208.605 1664.26 208.605C1677.94 208.605 1690.2 210.221 1701.05 213.452C1711.91 216.601 1721.15 221.034 1728.77 226.751C1736.39 232.386 1742.19 239.015 1746.17 246.638C1750.23 254.178 1752.26 262.381 1752.26 271.247V402H1688.13V375.153H1686.64C1682.83 382.279 1678.19 388.038 1672.72 392.43C1667.33 396.821 1661.16 400.011 1654.2 402C1647.32 403.989 1639.74 404.983 1631.45 404.983ZM1653.82 361.73C1659.04 361.73 1663.93 360.653 1668.49 358.499C1673.13 356.344 1676.9 353.237 1679.8 349.177C1682.7 345.117 1684.15 340.187 1684.15 334.386V318.477C1682.33 319.223 1680.38 319.927 1678.31 320.59C1676.32 321.253 1674.17 321.875 1671.85 322.455C1669.61 323.035 1667.21 323.573 1664.64 324.07C1662.15 324.567 1659.54 325.023 1656.81 325.438C1651.5 326.266 1647.15 327.633 1643.76 329.539C1640.44 331.362 1637.96 333.641 1636.3 336.375C1634.73 339.027 1633.94 342.009 1633.94 345.324C1633.94 350.627 1635.8 354.687 1639.53 357.504C1643.26 360.321 1648.02 361.73 1653.82 361.73ZM1860.65 147.455V402H1792.04V147.455H1860.65Z" fill="white"/>
<path d="M1994.58 477.568C1975.44 477.568 1959.04 474.834 1945.36 469.365C1931.77 463.979 1921.21 456.522 1913.67 446.993C1906.21 437.547 1902.03 426.692 1901.12 414.429H1967.24C1967.9 418.489 1969.56 421.762 1972.21 424.248C1974.86 426.734 1978.26 428.515 1982.4 429.592C1986.63 430.752 1991.35 431.332 1996.57 431.332C2005.44 431.332 2012.77 429.178 2018.57 424.869C2024.45 420.561 2027.39 412.772 2027.39 401.503V369.188H2025.41C2022.92 375.651 2019.11 381.161 2013.97 385.718C2008.83 390.192 2002.66 393.631 1995.45 396.034C1988.24 398.354 1980.33 399.514 1971.71 399.514C1958.12 399.514 1945.61 396.366 1934.18 390.068C1922.83 383.771 1913.71 373.786 1906.83 360.114C1900.04 346.442 1896.64 328.586 1896.64 306.545C1896.64 283.51 1900.2 264.784 1907.33 250.366C1914.54 235.949 1923.82 225.384 1935.17 218.673C1946.61 211.961 1958.62 208.605 1971.22 208.605C1980.66 208.605 1988.95 210.262 1996.07 213.577C2003.2 216.808 2009.17 221.158 2013.97 226.627C2018.78 232.013 2022.42 237.937 2024.91 244.401H2026.4V211.091H2095.01V401.503C2095.01 417.661 2090.82 431.374 2082.45 442.643C2074.17 453.995 2062.49 462.653 2047.41 468.619C2032.32 474.585 2014.72 477.568 1994.58 477.568ZM1997.07 350.793C2003.37 350.793 2008.75 349.053 2013.23 345.572C2017.78 342.009 2021.26 336.955 2023.67 330.409C2026.15 323.78 2027.39 315.826 2027.39 306.545C2027.39 297.099 2026.15 289.021 2023.67 282.309C2021.26 275.514 2017.78 270.336 2013.23 266.773C2008.75 263.127 2003.37 261.304 1997.07 261.304C1990.77 261.304 1985.38 263.127 1980.91 266.773C1976.52 270.336 1973.12 275.514 1970.72 282.309C1968.4 289.021 1967.24 297.099 1967.24 306.545C1967.24 315.991 1968.4 324.029 1970.72 330.658C1973.12 337.204 1976.52 342.217 1980.91 345.697C1985.38 349.094 1990.77 350.793 1997.07 350.793ZM2205.51 147.455V402H2136.9V147.455H2205.51ZM2339.44 405.48C2318.73 405.48 2300.99 401.379 2286.25 393.175C2271.5 384.889 2260.19 373.372 2252.31 358.623C2244.44 343.791 2240.51 326.598 2240.51 307.043C2240.51 287.488 2244.44 270.336 2252.31 255.587C2260.19 240.755 2271.5 229.237 2286.25 221.034C2300.99 212.748 2318.73 208.605 2339.44 208.605C2360.16 208.605 2377.89 212.748 2392.64 221.034C2407.39 229.237 2418.7 240.755 2426.57 255.587C2434.44 270.336 2438.38 287.488 2438.38 307.043C2438.38 326.598 2434.44 343.791 2426.57 358.623C2418.7 373.372 2407.39 384.889 2392.64 393.175C2377.89 401.379 2360.16 405.48 2339.44 405.48ZM2339.94 354.77C2345.74 354.77 2350.75 352.823 2354.98 348.928C2359.2 345.034 2362.48 339.482 2364.8 332.273C2367.12 325.065 2368.28 316.489 2368.28 306.545C2368.28 296.519 2367.12 287.943 2364.8 280.817C2362.48 273.609 2359.2 268.057 2354.98 264.163C2350.75 260.268 2345.74 258.321 2339.94 258.321C2333.81 258.321 2328.55 260.268 2324.15 264.163C2319.76 268.057 2316.41 273.609 2314.09 280.817C2311.77 287.943 2310.61 296.519 2310.61 306.545C2310.61 316.489 2311.77 325.065 2314.09 332.273C2316.41 339.482 2319.76 345.034 2324.15 348.928C2328.55 352.823 2333.81 354.77 2339.94 354.77ZM2503.61 402L2455.88 211.091H2524.49L2546.36 327.426H2547.85L2572.21 211.091H2638.83L2664.19 326.432H2665.68L2686.56 211.091H2755.17L2707.44 402H2633.36L2606.52 299.585H2604.53L2577.68 402H2503.61Z" fill="#2CB67D"/>
<defs>
<clipPath id="clip0_2489_29">
<rect width="388.75" height="378.511" fill="white" transform="translate(117 108)"/>
</clipPath>
</defs>
</svg>
