<svg width="622" height="593" viewBox="0 0 622 593" fill="none" xmlns="http://www.w3.org/2000/svg">
<rect width="622" height="593" rx="93" fill="#2CB67D" fill-opacity="0.2"/>
<g clip-path="url(#clip0_2489_7)">
<path d="M235.902 392.548L212.441 369.704C205.987 363.42 203.709 354.327 206.594 345.899C208.872 339.32 211.909 330.744 215.554 320.912H135.222C128.692 320.912 122.618 317.511 119.353 311.966C116.088 306.422 116.164 299.621 119.505 294.15L159.367 228.724C169.238 212.534 187.081 202.627 206.366 202.627H268.855C270.677 199.67 272.499 196.935 274.322 194.273C336.506 104.968 429.138 102.011 484.414 111.918C493.221 113.47 500.055 120.198 501.725 128.773C511.9 182.667 508.786 272.785 417.142 333.332C414.484 335.106 411.599 336.88 408.562 338.654V399.497C408.562 418.275 398.388 435.722 381.759 445.258L314.563 484.071C308.945 487.323 301.959 487.397 296.265 484.218C290.57 481.04 287.077 475.199 287.077 468.767V389.517C276.372 393.139 267.033 396.096 259.971 398.314C251.467 400.976 242.204 398.684 235.826 392.548H235.902ZM408.562 232.198C416.617 232.198 424.342 229.083 430.037 223.537C435.733 217.991 438.933 210.47 438.933 202.627C438.933 194.784 435.733 187.263 430.037 181.717C424.342 176.172 416.617 173.056 408.562 173.056C400.507 173.056 392.782 176.172 387.086 181.717C381.391 187.263 378.191 194.784 378.191 202.627C378.191 210.47 381.391 217.991 387.086 223.537C392.782 229.083 400.507 232.198 408.562 232.198Z" fill="#1ECD85"/>
</g>
<defs>
<clipPath id="clip0_2489_7">
<rect width="388.75" height="378.511" fill="white" transform="translate(117 108)"/>
</clipPath>
</defs>
</svg>
