<svg width="107" height="235" viewBox="0 0 107 235" fill="none" xmlns="http://www.w3.org/2000/svg">
<path d="M46.03 93.9013C42.7226 73.8827 41.8487 53.6004 43.424 33.412L46.03 0C31.6699 25.6725 34.9152 59.4622 46.03 93.9013Z" fill="#D5D5D5"/>
<path d="M57.2271 99.4913C55.6347 87.5457 55.2151 75.4973 55.9732 63.4856L57.2271 43.5977C50.318 58.879 51.8794 78.9917 57.2271 99.4913Z" fill="#D5D5D5"/>
<path d="M107 124.087V135.266C106.995 136.154 106.6 137.004 105.901 137.632C105.202 138.26 104.256 138.615 103.267 138.619H97.0464C96.8829 138.619 96.7209 138.647 96.5697 138.703C96.4185 138.759 96.2812 138.842 96.1656 138.946C96.0499 139.05 95.9583 139.173 95.896 139.309C95.8336 139.444 95.8018 139.59 95.8024 139.737V231.403C95.7973 232.291 95.4025 233.141 94.7036 233.769C94.0047 234.397 93.0582 234.752 92.0698 234.756H16.1744C15.1846 234.756 14.2356 234.402 13.5358 233.773C12.836 233.145 12.4425 232.292 12.4418 231.403V139.737C12.4408 139.441 12.3094 139.157 12.0763 138.948C11.8432 138.738 11.5273 138.62 11.1976 138.619H3.73258C2.74287 138.619 1.79387 138.265 1.09404 137.636C0.394206 137.008 0.000759253 136.155 3.54506e-06 135.266V124.087C-0.000672582 123.646 0.0953728 123.21 0.282713 122.803C0.470053 122.396 0.744978 122.026 1.09171 121.714C1.43845 121.403 1.8502 121.156 2.30336 120.988C2.75652 120.819 3.24222 120.733 3.73258 120.733H103.268C104.257 120.736 105.204 121.09 105.904 121.719C106.603 122.347 106.997 123.198 107 124.087Z" fill="#262626"/>
<path d="M95.9142 140.967H12.5537V144.32H95.9142V140.967Z" fill="#2CB67D"/>
<path d="M95.802 190.316C82.4385 195.476 68.0452 198.137 53.4997 198.137C38.9541 198.137 24.5609 195.476 11.1973 190.316V166.689C38.6455 158.406 68.3538 158.406 95.802 166.689V190.316Z" fill="#2CB67D"/>
</svg>
