<svg width="650" height="650" viewBox="0 0 650 650" fill="none" xmlns="http://www.w3.org/2000/svg">
<g filter="url(#filter0_f_2388_324)">
<rect x="200" y="200" width="250" height="250" rx="122" fill="#2CB67D" fill-opacity="0.35"/>
</g>
<rect x="150" y="122" width="350" height="407" rx="20" fill="#1B1B1B"/>
<rect x="192" y="269" width="102" height="53" rx="6" fill="#2C2C2C"/>
<rect x="356.733" y="246.607" width="102" height="53" rx="6" fill="#2C2C2C"/>
<rect x="342.434" y="164" width="102" height="53" rx="6" fill="#2C2C2C"/>
<path d="M320.994 233.242C325.409 233.242 328.988 229.606 328.988 225.121C328.988 220.636 325.409 217 320.994 217C316.579 217 313 220.636 313 225.121C313 229.606 316.579 233.242 320.994 233.242Z" fill="#2CB67D"/>
<path d="M280.639 243.817C285.054 243.817 288.633 240.181 288.633 235.695C288.633 231.21 285.054 227.574 280.639 227.574C276.224 227.574 272.646 231.21 272.646 235.695C272.646 240.181 276.224 243.817 280.639 243.817Z" fill="#2CB67D"/>
<path d="M241.994 194.031C246.409 194.031 249.988 190.395 249.988 185.91C249.988 181.425 246.409 177.789 241.994 177.789C237.579 177.789 234 181.425 234 185.91C234 190.395 237.579 194.031 241.994 194.031Z" fill="#2CB67D"/>
<path d="M249.09 182.682C262.056 178.574 275.937 183.017 288.974 179.225C291.973 178.388 294.807 177.031 297.353 175.212C299.525 173.533 301.564 171.683 303.452 169.678C307.374 165.723 311.633 161.57 317.525 161.615C325.284 161.676 331.242 167.553 336.414 172.742C337.144 173.475 338.271 172.328 337.539 171.594C332.787 166.826 327.653 161.795 320.888 160.372C317.854 159.685 314.686 159.954 311.805 161.141C309.304 162.299 307.02 163.892 305.055 165.847C302.972 167.795 301.05 169.916 298.939 171.833C296.734 173.878 294.195 175.512 291.437 176.661C285.46 179.088 278.904 179.381 272.547 179.31C264.568 179.222 256.398 178.667 248.667 181.117C247.692 181.426 248.108 182.994 249.09 182.682Z" fill="#F8F8F8"/>
<path d="M339.257 161.802L343.243 168.966L345.171 172.433C345.514 173.049 345.866 173.66 346.2 174.282C346.405 174.663 346.853 175.351 346.425 175.713C346.05 175.9 345.627 175.967 345.214 175.906C344.511 175.907 343.808 175.891 343.105 175.884L339.153 175.843L330.983 175.759C330.777 175.766 330.581 175.855 330.438 176.006C330.295 176.158 330.214 176.36 330.214 176.57C330.214 176.781 330.295 176.983 330.438 177.135C330.581 177.286 330.777 177.375 330.983 177.382C335.726 177.431 340.471 177.533 345.214 177.529C346.041 177.61 346.869 177.379 347.541 176.88C347.87 176.546 348.088 176.115 348.163 175.648C348.239 175.181 348.169 174.702 347.963 174.278C347.495 173.237 346.957 172.231 346.353 171.267L344.617 168.147L340.632 160.982C340.521 160.804 340.347 160.677 340.147 160.627C339.946 160.577 339.734 160.608 339.556 160.715C339.378 160.821 339.247 160.994 339.191 161.196C339.135 161.399 339.159 161.616 339.257 161.802Z" fill="#F8F8F8"/>
<path d="M391.939 179.357H355.305C355.104 179.358 354.905 179.318 354.719 179.24C354.533 179.162 354.364 179.048 354.222 178.903C354.079 178.759 353.966 178.587 353.889 178.398C353.812 178.208 353.772 178.005 353.772 177.801C353.772 177.596 353.812 177.393 353.889 177.204C353.966 177.014 354.079 176.843 354.222 176.698C354.364 176.553 354.533 176.439 354.719 176.361C354.905 176.283 355.104 176.243 355.305 176.244H391.939C392.14 176.243 392.339 176.283 392.525 176.361C392.711 176.439 392.88 176.553 393.022 176.698C393.164 176.843 393.277 177.014 393.354 177.204C393.432 177.393 393.471 177.596 393.471 177.801C393.471 178.005 393.432 178.208 393.354 178.398C393.277 178.587 393.164 178.759 393.022 178.903C392.88 179.048 392.711 179.162 392.525 179.24C392.339 179.318 392.14 179.358 391.939 179.357Z" fill="#2CB67D"/>
<path d="M391.939 204.425H355.305C355.104 204.426 354.905 204.386 354.719 204.309C354.533 204.231 354.364 204.116 354.222 203.972C354.079 203.827 353.966 203.655 353.889 203.466C353.812 203.277 353.772 203.074 353.772 202.869C353.772 202.664 353.812 202.461 353.889 202.272C353.966 202.083 354.079 201.911 354.222 201.766C354.364 201.622 354.533 201.507 354.719 201.429C354.905 201.351 355.104 201.312 355.305 201.313H391.939C392.14 201.312 392.339 201.351 392.525 201.429C392.711 201.507 392.88 201.622 393.022 201.766C393.164 201.911 393.277 202.083 393.354 202.272C393.432 202.461 393.471 202.664 393.471 202.869C393.471 203.074 393.432 203.277 393.354 203.466C393.277 203.655 393.164 203.827 393.022 203.972C392.88 204.116 392.711 204.231 392.525 204.309C392.339 204.386 392.14 204.426 391.939 204.425Z" fill="#E6E6E6"/>
<path d="M427.902 191.89H355.305C355.104 191.891 354.905 191.851 354.719 191.773C354.533 191.696 354.364 191.581 354.222 191.436C354.079 191.292 353.966 191.12 353.889 190.931C353.812 190.742 353.772 190.539 353.772 190.334C353.772 190.129 353.812 189.926 353.889 189.737C353.966 189.548 354.079 189.376 354.222 189.231C354.364 189.087 354.533 188.972 354.719 188.894C354.905 188.816 355.104 188.777 355.305 188.777H427.902C428.103 188.777 428.302 188.816 428.488 188.894C428.674 188.972 428.843 189.087 428.985 189.231C429.127 189.376 429.24 189.548 429.317 189.737C429.394 189.926 429.434 190.129 429.434 190.334C429.434 190.539 429.394 190.742 429.317 190.931C429.24 191.12 429.127 191.292 428.985 191.436C428.843 191.581 428.674 191.696 428.488 191.773C428.302 191.851 428.103 191.891 427.902 191.89Z" fill="#E6E6E6"/>
<path d="M404.556 260.939H367.921C367.72 260.94 367.521 260.9 367.335 260.822C367.15 260.744 366.981 260.63 366.838 260.485C366.696 260.341 366.583 260.169 366.506 259.98C366.429 259.79 366.389 259.588 366.389 259.383C366.389 259.178 366.429 258.975 366.506 258.786C366.583 258.596 366.696 258.425 366.838 258.28C366.981 258.135 367.15 258.021 367.335 257.943C367.521 257.865 367.72 257.825 367.921 257.826H404.556C404.757 257.825 404.956 257.865 405.142 257.943C405.328 258.021 405.496 258.135 405.639 258.28C405.781 258.425 405.894 258.596 405.971 258.786C406.048 258.975 406.088 259.178 406.088 259.383C406.088 259.588 406.048 259.79 405.971 259.98C405.894 260.169 405.781 260.341 405.639 260.485C405.496 260.63 405.328 260.744 405.142 260.822C404.956 260.9 404.757 260.94 404.556 260.939Z" fill="#2CB67D"/>
<path d="M404.556 286.009H367.921C367.72 286.01 367.521 285.97 367.335 285.893C367.15 285.815 366.981 285.7 366.838 285.556C366.696 285.411 366.583 285.239 366.506 285.05C366.429 284.861 366.389 284.658 366.389 284.453C366.389 284.248 366.429 284.045 366.506 283.856C366.583 283.667 366.696 283.495 366.838 283.35C366.981 283.206 367.15 283.091 367.335 283.013C367.521 282.935 367.72 282.896 367.921 282.896H404.556C404.757 282.896 404.956 282.935 405.142 283.013C405.328 283.091 405.496 283.206 405.639 283.35C405.781 283.495 405.894 283.667 405.971 283.856C406.048 284.045 406.088 284.248 406.088 284.453C406.088 284.658 406.048 284.861 405.971 285.05C405.894 285.239 405.781 285.411 405.639 285.556C405.496 285.7 405.328 285.815 405.142 285.893C404.956 285.97 404.757 286.01 404.556 286.009Z" fill="#E6E6E6"/>
<path d="M440.519 273.474H367.921C367.72 273.475 367.521 273.435 367.335 273.357C367.15 273.28 366.981 273.165 366.838 273.02C366.696 272.876 366.583 272.704 366.506 272.515C366.429 272.326 366.389 272.123 366.389 271.918C366.389 271.713 366.429 271.51 366.506 271.321C366.583 271.132 366.696 270.96 366.838 270.815C366.981 270.671 367.15 270.556 367.335 270.478C367.521 270.4 367.72 270.361 367.921 270.361H440.519C440.72 270.361 440.919 270.4 441.105 270.478C441.29 270.556 441.459 270.671 441.602 270.815C441.744 270.96 441.857 271.132 441.934 271.321C442.011 271.51 442.051 271.713 442.051 271.918C442.051 272.123 442.011 272.326 441.934 272.515C441.857 272.704 441.744 272.876 441.602 273.02C441.459 273.165 441.29 273.28 441.105 273.357C440.919 273.435 440.72 273.475 440.519 273.474Z" fill="#E6E6E6"/>
<path d="M241.167 283.519H204.532C204.331 283.52 204.132 283.48 203.946 283.402C203.76 283.324 203.591 283.21 203.449 283.065C203.307 282.921 203.194 282.749 203.117 282.56C203.04 282.37 203 282.168 203 281.963C203 281.758 203.04 281.555 203.117 281.366C203.194 281.177 203.307 281.005 203.449 280.86C203.591 280.715 203.76 280.601 203.946 280.523C204.132 280.445 204.331 280.405 204.532 280.406H241.167C241.368 280.405 241.567 280.445 241.753 280.523C241.938 280.601 242.107 280.715 242.25 280.86C242.392 281.005 242.505 281.177 242.582 281.366C242.659 281.555 242.699 281.758 242.699 281.963C242.699 282.168 242.659 282.37 242.582 282.56C242.505 282.749 242.392 282.921 242.25 283.065C242.107 283.21 241.938 283.324 241.753 283.402C241.567 283.48 241.368 283.52 241.167 283.519Z" fill="#2CB67D"/>
<path d="M241.167 308.589H204.532C204.331 308.59 204.132 308.551 203.946 308.473C203.76 308.395 203.591 308.28 203.449 308.136C203.307 307.991 203.194 307.819 203.117 307.63C203.04 307.441 203 307.238 203 307.033C203 306.828 203.04 306.625 203.117 306.436C203.194 306.247 203.307 306.075 203.449 305.93C203.591 305.786 203.76 305.671 203.946 305.593C204.132 305.516 204.331 305.476 204.532 305.477H241.167C241.368 305.476 241.567 305.516 241.753 305.593C241.938 305.671 242.107 305.786 242.25 305.93C242.392 306.075 242.505 306.247 242.582 306.436C242.659 306.625 242.699 306.828 242.699 307.033C242.699 307.238 242.659 307.441 242.582 307.63C242.505 307.819 242.392 307.991 242.25 308.136C242.107 308.28 241.938 308.395 241.753 308.473C241.567 308.551 241.368 308.59 241.167 308.589Z" fill="#E6E6E6"/>
<path d="M277.13 296.054H204.532C204.331 296.055 204.132 296.015 203.946 295.938C203.76 295.86 203.591 295.745 203.449 295.6C203.307 295.456 203.194 295.284 203.117 295.095C203.04 294.906 203 294.703 203 294.498C203 294.293 203.04 294.09 203.117 293.901C203.194 293.712 203.307 293.54 203.449 293.395C203.591 293.251 203.76 293.136 203.946 293.058C204.132 292.98 204.331 292.941 204.532 292.941H277.13C277.331 292.941 277.53 292.98 277.715 293.058C277.901 293.136 278.07 293.251 278.213 293.395C278.355 293.54 278.468 293.712 278.545 293.901C278.622 294.09 278.662 294.293 278.662 294.498C278.662 294.703 278.622 294.906 278.545 295.095C278.468 295.284 278.355 295.456 278.213 295.6C278.07 295.745 277.901 295.86 277.715 295.938C277.53 296.015 277.331 296.055 277.13 296.054Z" fill="#E6E6E6"/>
<path d="M319.599 225.275L346.991 246.347L354.787 252.344C355.605 252.974 356.4 251.565 355.591 250.943L328.199 229.871L320.403 223.873C319.585 223.244 318.79 224.653 319.599 225.275Z" fill="#F8F8F8"/>
<path d="M342.908 253.631C348.882 256.554 355.376 258.206 361.997 258.489C362.119 258.487 362.239 258.457 362.348 258.401C362.457 258.345 362.552 258.265 362.626 258.166C362.7 258.067 362.751 257.952 362.775 257.83C362.799 257.708 362.795 257.582 362.764 257.461L358.522 240.1C358.275 239.087 356.739 239.516 356.987 240.531L361.229 257.893L361.997 256.865C355.656 256.598 349.436 255.021 343.711 252.229C342.792 251.78 341.983 253.179 342.908 253.631Z" fill="#F8F8F8"/>
<path d="M279.606 235.323L259.923 264.026L254.375 272.116C253.787 272.975 255.166 273.787 255.75 272.936L275.433 244.233L280.98 236.143C281.569 235.285 280.189 234.472 279.606 235.323Z" fill="#F8F8F8"/>
<path d="M252.64 260.109C249.998 266.282 248.624 272.941 248.603 279.676C248.604 279.801 248.633 279.923 248.688 280.035C248.743 280.146 248.822 280.243 248.919 280.318C249.016 280.394 249.129 280.446 249.249 280.47C249.369 280.494 249.492 280.491 249.61 280.459L266.518 275.465C266.715 275.402 266.88 275.264 266.979 275.079C267.078 274.894 267.103 274.677 267.048 274.474C266.993 274.271 266.863 274.098 266.685 273.991C266.507 273.884 266.296 273.851 266.095 273.9L249.187 278.894L250.195 279.676C250.202 273.227 251.502 266.847 254.015 260.928C254.419 259.979 253.048 259.152 252.64 260.109Z" fill="#F8F8F8"/>
<rect x="192" y="342" width="127" height="147" rx="6" fill="#2C2C2C"/>
<rect x="240.986" y="351.484" width="29.0286" height="5.92742" rx="2.96371" fill="#5B5B5B"/>
<rect x="205.607" y="379.936" width="100.693" height="3.55645" rx="1.77823" fill="#D9D9D9"/>
<rect x="205.607" y="371.637" width="100.693" height="3.55645" rx="1.77823" fill="#D9D9D9"/>
<rect x="205.607" y="363.34" width="100.693" height="3.55645" rx="1.77823" fill="#D9D9D9"/>
<rect x="218.846" y="415.238" width="72.8618" height="53.3468" rx="6" fill="#2CB67D"/>
<path d="M244.975 460.227H266.258L276.899 442.179L266.258 424.131H244.975L234.334 442.179L244.975 460.227Z" fill="#F2F2F2"/>
<g clip-path="url(#clip0_2388_324)">
<path d="M253.902 434.943L252.689 435.404C252.593 435.44 252.528 435.535 252.528 435.639C252.528 435.744 252.593 435.839 252.689 435.875L253.902 436.336L254.356 437.568C254.391 437.667 254.484 437.732 254.587 437.732C254.69 437.732 254.783 437.667 254.819 437.568L255.272 436.336L256.485 435.875C256.582 435.839 256.646 435.744 256.646 435.639C256.646 435.535 256.582 435.44 256.485 435.404L255.272 434.943L254.819 433.71C254.783 433.612 254.69 433.547 254.587 433.547C254.484 433.547 254.391 433.612 254.356 433.71L253.902 434.943ZM247.835 446.475C247.234 447.086 247.234 448.08 247.835 448.695L248.948 449.826C249.55 450.437 250.528 450.437 251.132 449.826L263.398 437.356C263.999 436.745 263.999 435.751 263.398 435.136L262.285 434.008C261.683 433.396 260.705 433.396 260.101 434.008L247.835 446.475ZM261.941 436.248L258.563 439.681L257.814 438.919L261.191 435.486L261.941 436.248ZM246.594 437.379C246.449 437.434 246.352 437.575 246.352 437.732C246.352 437.889 246.449 438.029 246.594 438.085L248.411 438.778L249.093 440.626C249.148 440.773 249.286 440.871 249.44 440.871C249.595 440.871 249.733 440.773 249.788 440.626L250.47 438.778L252.287 438.085C252.432 438.029 252.528 437.889 252.528 437.732C252.528 437.575 252.432 437.434 252.287 437.379L250.47 436.686L249.788 434.838C249.733 434.691 249.595 434.593 249.44 434.593C249.286 434.593 249.148 434.691 249.093 434.838L248.411 436.686L246.594 437.379ZM257.916 445.749C257.772 445.805 257.675 445.945 257.675 446.102C257.675 446.259 257.772 446.4 257.916 446.455L259.734 447.148L260.416 448.996C260.471 449.143 260.609 449.241 260.763 449.241C260.918 449.241 261.056 449.143 261.111 448.996L261.793 447.148L263.61 446.455C263.755 446.4 263.851 446.259 263.851 446.102C263.851 445.945 263.755 445.805 263.61 445.749L261.793 445.056L261.111 443.208C261.056 443.061 260.918 442.963 260.763 442.963C260.609 442.963 260.471 443.061 260.416 443.208L259.734 445.056L257.916 445.749Z" fill="#2CB67D"/>
</g>
<rect x="243.109" y="388.234" width="24.6809" height="5.92742" rx="2.96371" fill="#2CB67D"/>
<rect x="332" y="342" width="127" height="147" rx="6" fill="#2C2C2C"/>
<rect x="380.986" y="351.484" width="29.0286" height="5.92742" rx="2.96371" fill="#5B5B5B"/>
<rect x="345.607" y="379.936" width="100.693" height="3.55645" rx="1.77823" fill="#D9D9D9"/>
<rect x="345.607" y="371.637" width="100.693" height="3.55645" rx="1.77823" fill="#D9D9D9"/>
<rect x="345.607" y="363.34" width="100.693" height="3.55645" rx="1.77823" fill="#D9D9D9"/>
<rect x="358.846" y="415.238" width="72.8618" height="53.3468" rx="6" fill="#2CB67D"/>
<path d="M384.975 460.227H406.258L416.899 442.179L406.258 424.131H384.975L374.334 442.179L384.975 460.227Z" fill="#F2F2F2"/>
<rect x="383.109" y="388.234" width="24.6809" height="5.92742" rx="2.96371" fill="#2CB67D"/>
<path d="M399.983 442.209C400.597 441.364 400.955 440.334 400.955 439.219C400.955 436.319 398.513 433.969 395.5 433.969C392.487 433.969 390.045 436.319 390.045 439.219C390.045 440.334 390.403 441.364 391.017 442.209C391.175 442.426 391.362 442.672 391.562 442.935C392.112 443.661 392.768 444.53 393.259 445.387C393.702 446.167 393.928 446.979 394.038 447.746H391.963C391.869 447.254 391.712 446.774 391.46 446.331C391.038 445.593 390.514 444.899 389.99 444.206C389.768 443.915 389.547 443.624 389.334 443.329C388.494 442.168 388 440.749 388 439.219C388 435.232 391.358 432 395.5 432C399.642 432 403 435.232 403 439.219C403 440.749 402.506 442.168 401.662 443.333C401.449 443.628 401.227 443.919 401.006 444.21C400.482 444.899 399.957 445.593 399.536 446.335C399.284 446.778 399.126 447.258 399.033 447.75H396.966C397.077 446.983 397.303 446.167 397.746 445.392C398.236 444.534 398.892 443.665 399.442 442.939C399.642 442.676 399.825 442.43 399.983 442.213V442.209ZM395.5 437.25C394.371 437.25 393.455 438.132 393.455 439.219C393.455 439.58 393.148 439.875 392.773 439.875C392.398 439.875 392.091 439.58 392.091 439.219C392.091 437.406 393.616 435.938 395.5 435.938C395.875 435.938 396.182 436.233 396.182 436.594C396.182 436.955 395.875 437.25 395.5 437.25ZM395.5 453C393.616 453 392.091 451.532 392.091 449.719V449.062H398.909V449.719C398.909 451.532 397.384 453 395.5 453Z" fill="#2CB67D"/>
<defs>
<filter id="filter0_f_2388_324" x="0" y="0" width="650" height="650" filterUnits="userSpaceOnUse" color-interpolation-filters="sRGB">
<feFlood flood-opacity="0" result="BackgroundImageFix"/>
<feBlend mode="normal" in="SourceGraphic" in2="BackgroundImageFix" result="shape"/>
<feGaussianBlur stdDeviation="100" result="effect1_foregroundBlur_2388_324"/>
</filter>
<clipPath id="clip0_2388_324">
<rect width="18.5284" height="16.7402" fill="white" transform="translate(246.352 433.547)"/>
</clipPath>
</defs>
</svg>
