<svg width="487" height="487" viewBox="0 0 487 487" fill="none" xmlns="http://www.w3.org/2000/svg">
<g filter="url(#filter0_f_2520_8)">
<rect x="185" y="185" width="116.508" height="116.581" rx="58.2541" fill="#2CB67D"/>
</g>
<path d="M243.536 420.235C242.021 420.222 240.49 420.211 238.977 420.175C238.458 420.163 238.051 419.729 238.066 419.21C238.082 418.69 238.516 418.282 239.036 418.295C240.532 418.334 242.047 418.352 243.537 418.353C245.038 418.353 246.564 418.332 248.085 418.291C248.604 418.276 249.039 418.684 249.056 419.204C249.072 419.722 248.665 420.156 248.147 420.17C246.605 420.213 245.058 420.235 243.536 420.235ZM227.102 418.499C227.054 419.018 226.594 419.399 226.075 419.346C223.043 419.034 219.991 418.636 216.979 418.16C216.469 418.08 216.122 417.601 216.202 417.091C216.282 416.575 216.767 416.224 217.283 416.305C220.254 416.774 223.265 417.166 226.257 417.474C226.772 417.527 227.15 417.984 227.102 418.499ZM261.047 419.325C260.528 419.379 260.067 418.998 260.019 418.479C259.971 417.964 260.348 417.507 260.863 417.453C263.854 417.142 266.864 416.746 269.836 416.272C270.351 416.19 270.837 416.541 270.918 417.057C270.998 417.567 270.652 418.046 270.142 418.128C267.13 418.608 264.079 419.009 261.047 419.325ZM205.417 414.937C205.304 415.448 204.796 415.769 204.287 415.647C201.318 414.939 198.34 414.141 195.41 413.271C194.918 413.124 194.638 412.608 194.78 412.115C194.925 411.612 195.453 411.325 195.955 411.474C198.846 412.332 201.784 413.118 204.713 413.816C205.214 413.936 205.528 414.434 205.417 414.937ZM282.83 415.599C282.322 415.721 281.813 415.402 281.7 414.891C281.588 414.389 281.902 413.891 282.402 413.77C285.337 413.066 288.274 412.277 291.158 411.416C291.66 411.266 292.189 411.553 292.334 412.056C292.477 412.549 292.197 413.066 291.705 413.213C288.782 414.085 285.805 414.886 282.83 415.599ZM184.357 408.546C184.181 409.039 183.634 409.292 183.145 409.105C180.28 408.006 177.419 406.819 174.617 405.566C174.152 405.357 173.941 404.813 174.144 404.344C174.351 403.863 174.913 403.646 175.392 403.86C178.156 405.095 180.979 406.266 183.806 407.35C184.284 407.533 184.53 408.064 184.357 408.546ZM303.965 409.03C303.476 409.218 302.929 408.966 302.752 408.472C302.579 407.991 302.824 407.459 303.302 407.276C306.111 406.196 308.922 405.026 311.681 403.789C312.16 403.575 312.722 403.791 312.93 404.273C313.133 404.741 312.923 405.286 312.457 405.495C309.661 406.749 306.812 407.935 303.965 409.03ZM164.249 399.412C164.011 399.879 163.435 400.06 162.974 399.81C160.277 398.346 157.588 396.79 154.959 395.175C154.527 394.909 154.389 394.345 154.647 393.908C154.914 393.457 155.5 393.313 155.947 393.588C158.541 395.183 161.195 396.716 163.858 398.161C164.305 398.404 164.479 398.958 164.249 399.412ZM324.072 399.741C323.612 399.991 323.036 399.811 322.798 399.343C322.567 398.89 322.741 398.335 323.188 398.092C325.843 396.649 328.49 395.116 331.077 393.523C331.524 393.248 332.109 393.391 332.377 393.842C332.636 394.279 332.498 394.842 332.066 395.109C329.445 396.723 326.763 398.277 324.072 399.741ZM145.457 387.714C145.163 388.147 144.569 388.253 144.144 387.946C141.647 386.136 139.172 384.239 136.768 382.294C136.376 381.976 136.311 381.402 136.621 381.003C136.942 380.59 137.541 380.523 137.948 380.852C140.322 382.772 142.765 384.643 145.231 386.429C145.641 386.726 145.742 387.295 145.457 387.714ZM342.864 387.879C342.44 388.186 341.847 388.081 341.552 387.648C341.266 387.23 341.367 386.66 341.777 386.363C344.242 384.576 346.681 382.705 349.049 380.787C349.455 380.457 350.054 380.524 350.375 380.937C350.686 381.336 350.622 381.909 350.229 382.227C347.831 384.171 345.36 386.067 342.864 387.879ZM128.281 373.656C127.934 374.048 127.333 374.077 126.953 373.718C124.695 371.592 122.474 369.386 120.332 367.144C119.985 366.78 119.994 366.206 120.35 365.85C120.72 365.482 121.321 365.492 121.682 365.869C123.797 368.082 125.991 370.259 128.22 372.358C128.587 372.703 128.615 373.279 128.281 373.656ZM360.036 373.652C359.655 374.011 359.054 373.982 358.707 373.591C358.373 373.213 358.4 372.638 358.768 372.292C360.992 370.197 363.184 368.018 365.302 365.801C365.662 365.423 366.262 365.414 366.632 365.781C366.989 366.136 366.999 366.711 366.651 367.075C364.508 369.322 362.288 371.529 360.036 373.652ZM112.991 357.48C112.599 357.823 112.001 357.776 111.67 357.373C109.694 354.969 107.763 352.49 105.914 349.984C105.616 349.58 105.697 349.012 106.096 348.706C106.508 348.389 107.1 348.475 107.409 348.893C109.236 351.368 111.143 353.816 113.095 356.188C113.414 356.577 113.369 357.149 112.991 357.48ZM375.31 357.296C374.98 357.698 374.382 357.746 373.99 357.403C373.612 357.072 373.566 356.5 373.885 356.112C375.837 353.736 377.746 351.285 379.572 348.807C379.881 348.388 380.473 348.303 380.885 348.619C381.283 348.925 381.366 349.492 381.068 349.896C379.219 352.407 377.287 354.889 375.31 357.296ZM99.8349 339.447C99.4039 339.736 98.8195 339.614 98.5433 339.175C96.8789 336.528 95.2704 333.815 93.7489 331.088C93.5044 330.65 93.6579 330.098 94.0919 329.846C94.5394 329.587 95.1127 329.746 95.3649 330.198C96.8682 332.891 98.4576 335.57 100.102 338.182C100.369 338.607 100.252 339.168 99.8349 339.447ZM388.439 339.073C388.163 339.512 387.579 339.635 387.148 339.347C386.731 339.068 386.613 338.507 386.88 338.082C388.525 335.463 390.115 332.778 391.619 330.078C391.871 329.626 392.444 329.467 392.892 329.726C393.326 329.977 393.48 330.529 393.236 330.968C391.714 333.702 390.105 336.421 388.439 339.073ZM89.0328 319.851C88.5704 320.08 88.0095 319.885 87.792 319.417C86.4708 316.574 85.2138 313.671 84.0454 310.764C83.8583 310.298 84.0817 309.77 84.5449 309.577C85.0197 309.379 85.5642 309.609 85.7562 310.086C86.9113 312.957 88.1535 315.824 89.4588 318.632C89.6703 319.086 89.4821 319.628 89.0328 319.851ZM399.194 319.27C398.976 319.738 398.416 319.934 397.954 319.705C397.504 319.482 397.316 318.941 397.527 318.486C398.832 315.672 400.076 312.795 401.233 309.91C401.424 309.433 401.968 309.202 402.443 309.399C402.907 309.592 403.131 310.12 402.944 310.586C401.774 313.507 400.516 316.421 399.194 319.27ZM80.7664 298.99C80.2807 299.156 79.7528 298.892 79.5969 298.403C78.6403 295.402 77.7557 292.349 76.96 289.304C76.8329 288.818 77.1232 288.321 77.6086 288.191C78.1027 288.058 78.6101 288.354 78.7395 288.849C79.5259 291.857 80.4003 294.872 81.3454 297.835C81.4979 298.314 81.2414 298.827 80.7664 298.99ZM407.383 298.204C407.228 298.693 406.701 298.957 406.215 298.792C405.74 298.631 405.482 298.118 405.634 297.639C406.574 294.678 407.445 291.662 408.229 288.649C408.358 288.154 408.865 287.857 409.36 287.989C409.845 288.12 410.136 288.616 410.01 289.103C409.216 292.153 408.334 295.206 407.383 298.204ZM75.1817 277.196C74.6812 277.297 74.195 276.969 74.1025 276.467C73.5308 273.367 73.0357 270.223 72.6266 267.094C72.5613 266.594 72.9142 266.137 73.414 266.071C73.9185 266.004 74.3807 266.361 74.4468 266.865C74.8513 269.956 75.3407 273.063 75.9055 276.125C75.9968 276.62 75.6752 277.098 75.1817 277.196ZM412.852 276.261C412.76 276.763 412.275 277.091 411.775 276.992C411.281 276.894 410.959 276.417 411.049 275.922C411.61 272.86 412.096 269.752 412.497 266.659C412.562 266.154 413.024 265.797 413.529 265.863C414.029 265.929 414.383 266.386 414.318 266.886C413.912 270.017 413.42 273.162 412.852 276.261ZM72.3691 254.85C71.8624 254.883 71.4247 254.499 71.3955 253.992C71.2142 250.844 71.1129 247.658 71.0936 244.498C71.0905 243.992 71.5008 243.581 72.0072 243.58C72.5136 243.58 72.9242 243.99 72.9274 244.496C72.9466 247.619 73.0467 250.766 73.226 253.877C73.255 254.381 72.8732 254.816 72.3691 254.85ZM415.534 253.781C415.506 254.288 415.068 254.673 414.562 254.64C414.058 254.607 413.675 254.173 413.704 253.669C413.896 250.256 413.994 246.797 413.994 243.373C413.993 243.146 414.178 242.961 414.405 242.961H415.421C415.645 242.961 415.827 243.143 415.827 243.367C415.827 246.834 415.729 250.331 415.534 253.781ZM73.3132 231.453C73.28 231.96 72.8441 232.345 72.3378 232.313C71.8334 232.281 71.4497 231.847 71.4827 231.343C71.6894 228.192 71.98 225.02 72.349 221.888C72.4086 221.383 72.87 221.025 73.3746 221.09C73.8748 221.155 74.2287 221.611 74.1697 222.112C73.8048 225.207 73.5175 228.341 73.3132 231.453ZM414.543 231.692C414.036 231.726 413.599 231.342 413.564 230.836C413.348 227.722 413.05 224.589 412.675 221.498C412.614 220.998 412.966 220.54 413.466 220.474C413.97 220.406 414.433 220.763 414.494 221.268C414.874 224.396 415.176 227.566 415.394 230.718C415.429 231.223 415.047 231.658 414.543 231.692ZM76.1691 209.224C76.0725 209.726 75.5876 210.054 75.087 209.955C74.5932 209.858 74.2699 209.381 74.3651 208.887C74.9611 205.792 75.6453 202.685 76.4035 199.626C76.5266 199.13 77.0335 198.832 77.5278 198.964C78.0136 199.093 78.3046 199.589 78.1837 200.077C77.4345 203.099 76.7585 206.168 76.1691 209.224ZM411.714 209.345C411.214 209.446 410.727 209.119 410.629 208.618C410.028 205.561 409.341 202.494 408.583 199.478C408.46 198.991 408.749 198.494 409.234 198.363C409.728 198.229 410.236 198.525 410.361 199.021C411.129 202.074 411.824 205.178 412.432 208.274C412.529 208.768 412.207 209.246 411.714 209.345ZM81.7842 187.555C81.6243 188.042 81.0979 188.308 80.6119 188.143C80.1362 187.982 79.8777 187.469 80.034 186.991C81.0144 183.999 82.0841 181.004 83.2225 178.066C83.4084 177.586 83.9532 177.355 84.4286 177.552C84.8921 177.744 85.1161 178.272 84.9348 178.74C83.81 181.642 82.7531 184.599 81.7842 187.555ZM406.116 187.553C405.63 187.719 405.103 187.456 404.941 186.969C403.962 184.019 402.897 181.071 401.766 178.182C401.583 177.715 401.805 177.186 402.268 176.993C402.743 176.794 403.288 177.023 403.476 177.502C404.621 180.428 405.699 183.413 406.689 186.399C406.847 186.876 406.59 187.389 406.116 187.553ZM90.088 166.777C89.8664 167.243 89.3064 167.439 88.8436 167.211C88.3937 166.989 88.204 166.448 88.4192 165.994C89.7659 163.16 91.2002 160.336 92.694 157.578C92.9405 157.123 93.5141 156.962 93.9622 157.221C94.3966 157.472 94.5506 158.024 94.3116 158.465C92.8357 161.189 91.4188 163.977 90.088 166.777ZM397.832 166.695C397.37 166.925 396.81 166.731 396.587 166.265C395.252 163.48 393.83 160.703 392.348 157.988C392.107 157.547 392.26 156.995 392.693 156.743C393.141 156.482 393.715 156.641 393.963 157.095C395.463 159.844 396.902 162.657 398.252 165.478C398.469 165.931 398.281 166.472 397.832 166.695ZM100.92 147.276C100.64 147.713 100.056 147.837 99.6246 147.549C99.2072 147.27 99.0883 146.709 99.3592 146.287C101.046 143.657 102.818 141.048 104.64 138.512C104.943 138.09 105.535 138.004 105.948 138.32C106.347 138.625 106.43 139.192 106.137 139.6C104.337 142.104 102.586 144.679 100.92 147.276ZM387.01 147.103C386.579 147.393 385.995 147.271 385.714 146.835C384.043 144.248 382.288 141.681 380.482 139.185C380.188 138.778 380.268 138.211 380.666 137.904C381.078 137.587 381.671 137.671 381.975 138.093C383.804 140.621 385.581 143.221 387.272 145.84C387.544 146.262 387.427 146.824 387.01 147.103ZM114.087 129.364C113.752 129.764 113.155 129.812 112.762 129.47C112.384 129.139 112.337 128.567 112.66 128.182C114.656 125.797 116.734 123.445 118.851 121.172C119.207 120.79 119.808 120.78 120.179 121.148C120.536 121.502 120.546 122.077 120.203 122.445C118.111 124.689 116.059 127.01 114.087 129.364ZM373.832 129.08C373.44 129.423 372.843 129.376 372.507 128.978C370.528 126.631 368.47 124.316 366.373 122.079C366.029 121.712 366.037 121.138 366.393 120.782C366.763 120.414 367.364 120.422 367.721 120.803C369.844 123.069 371.928 125.414 373.931 127.791C374.254 128.176 374.21 128.748 373.832 129.08ZM129.362 113.323C128.978 113.678 128.377 113.65 128.03 113.259C127.695 112.882 127.722 112.307 128.092 111.965C130.367 109.861 132.715 107.803 135.09 105.83C135.493 105.495 136.092 105.562 136.414 105.975C136.725 106.373 136.661 106.946 136.272 107.269C133.927 109.216 131.608 111.247 129.362 113.323ZM358.518 112.916C358.173 113.308 357.572 113.338 357.187 112.984C354.936 110.917 352.612 108.892 350.256 106.948C349.866 106.626 349.801 106.052 350.11 105.653C350.431 105.239 351.03 105.171 351.434 105.505C353.82 107.475 356.174 109.527 358.452 111.622C358.824 111.963 358.852 112.538 358.518 112.916ZM146.493 99.4127C146.066 99.7161 145.472 99.6118 145.177 99.1792C144.891 98.7611 144.991 98.1915 145.404 97.8981C147.914 96.1136 150.494 94.3819 153.094 92.736C153.537 92.4557 154.124 92.5982 154.391 93.049C154.65 93.4854 154.513 94.0487 154.084 94.3201C151.518 95.9439 148.971 97.6524 146.493 99.4127ZM341.321 98.8779C341.026 99.3115 340.433 99.4177 340.005 99.1155C337.513 97.3573 334.958 95.6541 332.387 94.0384C331.957 93.7683 331.819 93.2055 332.077 92.7683C332.343 92.3168 332.929 92.1725 333.372 92.4514C335.977 94.0887 338.566 95.815 341.089 97.5971C341.503 97.8893 341.605 98.4588 341.321 98.8779ZM165.202 87.864C164.738 88.1099 164.163 87.9305 163.924 87.4634C163.692 87.0102 163.865 86.4549 164.315 86.2162C167.021 84.7787 169.791 83.4022 172.571 82.1132C173.046 81.8927 173.609 82.1089 173.818 82.5899C174.021 83.0581 173.812 83.6024 173.349 83.817C170.606 85.0882 167.873 86.446 165.202 87.864ZM322.509 87.2042C322.271 87.6719 321.696 87.853 321.232 87.6086C318.549 86.1955 315.804 84.8435 313.05 83.5782C312.586 83.3651 312.375 82.8212 312.576 82.3522C312.783 81.8705 313.346 81.6524 313.822 81.8713C316.613 83.154 319.395 84.525 322.114 85.9576C322.564 86.195 322.739 86.7501 322.509 87.2042ZM185.183 78.8765C184.692 79.0597 184.144 78.8083 183.967 78.3153C183.793 77.8338 184.037 77.3016 184.517 77.1226C187.383 76.0529 190.303 75.0527 193.223 74.1412C193.723 73.9851 194.252 74.2716 194.398 74.7745C194.541 75.2675 194.262 75.7837 193.772 75.9366C190.892 76.8352 188.01 77.8217 185.183 78.8765ZM302.382 78.101C302.206 78.5945 301.66 78.8477 301.168 78.6664C298.335 77.6216 295.45 76.6458 292.569 75.7581C292.078 75.6069 291.797 75.0915 291.938 74.598C292.083 74.0946 292.611 73.8063 293.111 73.9605C296.032 74.8607 298.956 75.8504 301.828 76.9103C302.308 77.0876 302.554 77.6189 302.382 78.101ZM206.149 72.5939C205.64 72.7106 205.131 72.3918 205.017 71.8814C204.905 71.3791 205.218 70.8798 205.719 70.7649C208.69 70.0841 211.71 69.4788 214.721 68.9597C215.235 68.8709 215.722 69.2218 215.803 69.7377C215.884 70.2476 215.538 70.7269 215.029 70.8146C212.059 71.3263 209.08 71.9231 206.149 72.5939ZM281.309 71.7437C281.197 72.2545 280.689 72.5752 280.179 72.4604C277.243 71.7995 274.263 71.2134 271.293 70.713C270.784 70.6271 270.436 70.1489 270.515 69.6386C270.595 69.1225 271.08 68.7701 271.595 68.8569C274.605 69.3644 277.627 69.959 280.602 70.6294C281.105 70.7426 281.419 71.2408 281.309 71.7437ZM227.727 69.128C227.208 69.1766 226.747 68.7969 226.697 68.2781C226.649 67.7629 227.025 67.3048 227.541 67.2564C230.569 66.972 233.638 66.7671 236.689 66.6459C237.208 66.6252 237.644 67.033 237.661 67.553C237.678 68.0716 237.271 68.5057 236.753 68.5263C233.743 68.6461 230.715 68.848 227.727 69.128ZM259.616 68.2194C259.568 68.7384 259.108 69.1197 258.589 69.073C255.597 68.8034 252.569 68.6124 249.562 68.5036C249.043 68.4849 248.635 68.0522 248.65 67.5335C248.666 67.0136 249.1 66.6044 249.619 66.6232C252.667 66.7334 255.736 66.927 258.769 67.2005C259.284 67.247 259.663 67.7038 259.616 68.2194Z" fill="#9A9A9A"/>
<path d="M237.041 115.431C260.841 115.431 280.134 95.6347 280.134 71.2153C280.134 46.7959 260.841 27 237.041 27C213.242 27 193.949 46.7959 193.949 71.2153C193.949 95.6347 213.242 115.431 237.041 115.431Z" fill="#2CB67D"/>
<path d="M403.908 235.847C427.707 235.847 447 216.051 447 191.631C447 167.212 427.707 147.416 403.908 147.416C380.109 147.416 360.816 167.212 360.816 191.631C360.816 216.051 380.109 235.847 403.908 235.847Z" fill="#2CB67D"/>
<path d="M351.647 420.233C375.446 420.233 394.739 400.437 394.739 376.018C394.739 351.599 375.446 331.803 351.647 331.803C327.848 331.803 308.555 351.599 308.555 376.018C308.555 400.437 327.848 420.233 351.647 420.233Z" fill="#2CB67D"/>
<path d="M144.438 427.759C168.238 427.759 187.531 407.963 187.531 383.543C187.531 359.124 168.238 339.328 144.438 339.328C120.639 339.328 101.346 359.124 101.346 383.543C101.346 407.963 120.639 427.759 144.438 427.759Z" fill="#2CB67D"/>
<path d="M82.0922 235.847C105.891 235.847 125.184 216.051 125.184 191.631C125.184 167.212 105.891 147.416 82.0922 147.416C58.293 147.416 39 167.212 39 191.631C39 216.051 58.293 235.847 82.0922 235.847Z" fill="#2CB67D"/>
<path d="M255.508 67.6899H240.477C239.11 67.6899 237.8 67.1328 236.833 66.1412C235.867 65.1495 235.324 63.8046 235.324 62.4022V46.9797C235.324 46.9218 235.313 46.8645 235.291 46.8111C235.269 46.7576 235.238 46.709 235.198 46.6681C235.158 46.6272 235.111 46.5947 235.059 46.5726C235.007 46.5505 234.951 46.5391 234.894 46.5391H225.017C223.195 46.5391 221.447 47.2818 220.158 48.604C218.87 49.9262 218.146 51.7195 218.146 53.5893V88.8407C218.146 90.7106 218.87 92.5039 220.158 93.826C221.447 95.1482 223.195 95.891 225.017 95.891H249.066C250.889 95.891 252.636 95.1482 253.925 93.826C255.214 92.5039 255.937 90.7106 255.937 88.8407V68.1305C255.937 68.0727 255.926 68.0154 255.905 67.9619C255.883 67.9084 255.851 67.8599 255.812 67.819C255.772 67.778 255.724 67.7456 255.672 67.7234C255.62 67.7013 255.564 67.6899 255.508 67.6899ZM245.631 85.3156H228.453C227.997 85.3156 227.56 85.1299 227.238 84.7994C226.916 84.4688 226.735 84.0205 226.735 83.553C226.735 83.0856 226.916 82.6373 227.238 82.3067C227.56 81.9762 227.997 81.7905 228.453 81.7905H245.631C246.086 81.7905 246.523 81.9762 246.845 82.3067C247.167 82.6373 247.348 83.0856 247.348 83.553C247.348 84.0205 247.167 84.4688 246.845 84.7994C246.523 85.1299 246.086 85.3156 245.631 85.3156ZM245.631 76.5027H228.453C227.997 76.5027 227.56 76.3171 227.238 75.9865C226.916 75.656 226.735 75.2077 226.735 74.7402C226.735 74.2727 226.916 73.8244 227.238 73.4939C227.56 73.1633 227.997 72.9776 228.453 72.9776H245.631C246.086 72.9776 246.523 73.1633 246.845 73.4939C247.167 73.8244 247.348 74.2727 247.348 74.7402C247.348 75.2077 247.167 75.656 246.845 75.9865C246.523 76.3171 246.086 76.5027 245.631 76.5027Z" fill="white"/>
<path d="M254.565 63.7891L239.125 47.9469C239.095 47.9163 239.057 47.8954 239.016 47.887C238.974 47.8786 238.931 47.8829 238.892 47.8995C238.853 47.9161 238.819 47.9442 238.796 47.9803C238.772 48.0163 238.759 48.0588 238.759 48.1022V62.4022C238.759 62.8696 238.94 63.3179 239.262 63.6485C239.585 63.979 240.022 64.1647 240.477 64.1647H254.414C254.456 64.1646 254.497 64.1515 254.533 64.1273C254.568 64.1031 254.595 64.0687 254.611 64.0286C254.628 63.9885 254.632 63.9443 254.624 63.9017C254.615 63.8591 254.595 63.8199 254.565 63.7891L254.565 63.7891Z" fill="white"/>
<path d="M357.879 367.309C357.351 367.309 356.839 367.497 356.431 367.841C356.023 368.185 355.743 368.664 355.641 369.196C355.538 369.728 355.618 370.279 355.867 370.757C356.116 371.235 356.519 371.61 357.008 371.817C357.496 372.024 358.039 372.051 358.545 371.894C359.05 371.736 359.487 371.404 359.78 370.953C360.073 370.502 360.205 369.961 360.153 369.421C360.101 368.882 359.869 368.377 359.495 367.994C359.283 367.777 359.031 367.604 358.754 367.487C358.476 367.369 358.179 367.308 357.879 367.309Z" fill="white"/>
<path d="M370.595 357.939V357.931C370.523 357.606 370.363 357.307 370.134 357.07C369.906 356.833 369.617 356.666 369.3 356.588C366.751 355.949 362.739 356.63 358.294 358.456C354.02 360.161 350.109 362.702 346.779 365.938C345.87 366.866 345.025 367.858 344.251 368.908C342.54 368.787 340.826 369.069 339.239 369.734C334.299 371.965 332.888 377.674 332.512 380.018C332.458 380.351 332.479 380.693 332.574 381.016C332.669 381.339 332.836 381.635 333.061 381.882C333.286 382.128 333.564 382.318 333.872 382.436C334.18 382.555 334.511 382.598 334.839 382.564H334.85L340.353 381.948C340.36 382.02 340.368 382.086 340.374 382.146C340.444 382.834 340.743 383.477 341.221 383.965L343.907 386.723C344.382 387.213 345.008 387.521 345.679 387.593L345.863 387.613L345.264 393.253V393.265C345.235 393.551 345.261 393.841 345.341 394.117C345.422 394.393 345.554 394.651 345.731 394.874C345.908 395.098 346.127 395.284 346.374 395.421C346.621 395.558 346.892 395.644 347.171 395.673C347.237 395.68 347.303 395.684 347.369 395.685C347.488 395.685 347.607 395.675 347.724 395.655C350.022 395.276 355.584 393.846 357.752 388.749C358.394 387.126 358.671 385.375 358.56 383.627C359.588 382.835 360.558 381.968 361.465 381.033C364.617 377.649 367.096 373.667 368.765 369.311C370.535 364.802 371.202 360.655 370.595 357.939ZM361.434 373.292C360.732 374.014 359.836 374.506 358.86 374.706C357.885 374.905 356.874 374.804 355.955 374.414C355.036 374.024 354.25 373.363 353.697 372.515C353.144 371.666 352.849 370.669 352.848 369.648C352.848 368.628 353.142 367.63 353.694 366.781C354.246 365.933 355.031 365.271 355.95 364.88C356.869 364.489 357.88 364.386 358.855 364.585C359.831 364.783 360.727 365.274 361.431 365.995L361.434 365.999C362.377 366.952 362.912 368.25 362.922 369.607C362.932 370.964 362.416 372.27 361.488 373.237L361.434 373.292Z" fill="white"/>
<path d="M343.599 387.469C343.268 387.427 342.933 387.51 342.658 387.703C342.111 388.087 341.562 388.466 341.007 388.836C340.767 388.995 340.481 389.066 340.196 389.038C339.911 389.011 339.644 388.885 339.436 388.683C339.229 388.48 339.094 388.212 339.053 387.922C339.012 387.631 339.068 387.335 339.211 387.08L340.25 385.236C340.399 385.013 340.482 384.751 340.489 384.481C340.496 384.211 340.426 383.944 340.289 383.713C340.153 383.483 339.954 383.297 339.717 383.179C339.48 383.062 339.214 383.017 338.953 383.05C337.799 383.199 336.727 383.739 335.904 384.582C335.591 384.905 334.639 385.883 334.126 389.609C333.981 390.68 333.889 391.757 333.851 392.838C333.846 393.022 333.877 393.206 333.942 393.378C334.006 393.55 334.103 393.707 334.227 393.841C334.351 393.975 334.499 394.082 334.663 394.157C334.828 394.232 335.005 394.273 335.184 394.278C335.196 394.278 335.208 394.278 335.22 394.278H335.254C336.308 394.24 337.359 394.146 338.403 393.997C342.037 393.471 342.99 392.493 343.303 392.171C344.129 391.327 344.654 390.222 344.791 389.034C344.835 388.664 344.734 388.292 344.511 387.998C344.287 387.705 343.959 387.515 343.599 387.469Z" fill="white"/>
<path d="M129.609 407.571H126.486C125.865 407.571 125.27 407.318 124.831 406.867C124.391 406.417 124.145 405.806 124.145 405.168V390.752C124.145 390.115 124.391 389.504 124.831 389.053C125.27 388.603 125.865 388.35 126.486 388.35H129.609C130.23 388.35 130.825 388.603 131.264 389.053C131.704 389.504 131.95 390.115 131.95 390.752V405.168C131.95 405.806 131.704 406.417 131.264 406.867C130.825 407.318 130.23 407.571 129.609 407.571Z" fill="white"/>
<path d="M151.463 407.57H148.341C147.72 407.57 147.124 407.317 146.685 406.867C146.246 406.416 145.999 405.805 145.999 405.168V381.141C145.999 380.504 146.246 379.893 146.685 379.442C147.124 378.991 147.72 378.738 148.341 378.738H151.463C152.084 378.738 152.68 378.991 153.119 379.442C153.558 379.893 153.805 380.504 153.805 381.141V405.168C153.805 405.805 153.558 406.416 153.119 406.867C152.68 407.317 152.084 407.57 151.463 407.57Z" fill="white"/>
<path d="M162.39 407.572H159.267C158.646 407.572 158.051 407.319 157.612 406.868C157.172 406.417 156.926 405.806 156.926 405.169V369.93C156.926 369.293 157.172 368.682 157.612 368.231C158.051 367.78 158.646 367.527 159.267 367.527H162.39C163.011 367.527 163.606 367.78 164.045 368.231C164.485 368.682 164.731 369.293 164.731 369.93V405.169C164.731 405.806 164.485 406.417 164.045 406.868C163.606 407.319 163.011 407.572 162.39 407.572Z" fill="white"/>
<path d="M140.535 407.571H137.413C136.792 407.571 136.196 407.318 135.757 406.867C135.318 406.417 135.071 405.805 135.071 405.168V361.92C135.071 361.283 135.318 360.672 135.757 360.221C136.196 359.771 136.792 359.518 137.413 359.518H140.535C141.156 359.518 141.752 359.771 142.191 360.221C142.63 360.672 142.877 361.283 142.877 361.92V405.168C142.877 405.484 142.816 405.796 142.698 406.088C142.581 406.379 142.408 406.644 142.191 406.867C141.973 407.09 141.715 407.267 141.431 407.388C141.147 407.509 140.842 407.571 140.535 407.571Z" fill="white"/>
<path d="M405.974 190.475L403.743 188.185C403.232 187.661 402.539 187.365 401.817 187.363C401.094 187.361 400.4 187.653 399.886 188.175L384.378 202.86C383.809 203.377 383.46 204.103 383.408 204.881C383.392 205.268 383.453 205.654 383.589 206.015C383.724 206.376 383.931 206.704 384.195 206.98L387.527 210.436L387.533 210.442C388.048 210.969 388.745 211.266 389.472 211.268H389.572C389.949 211.246 390.317 211.149 390.657 210.981C390.997 210.813 391.301 210.578 391.552 210.289L405.964 194.449C406.479 193.925 406.77 193.213 406.773 192.469C406.776 191.725 406.491 191.011 405.981 190.482L405.974 190.475Z" fill="white"/>
<path d="M423.901 185.847L423.875 185.819L420.947 182.846C420.775 182.671 420.572 182.532 420.348 182.438C420.124 182.343 419.884 182.296 419.642 182.297C419.249 182.298 418.867 182.425 418.549 182.66C418.549 182.622 418.554 182.586 418.557 182.553C418.675 181.785 418.517 181 418.112 180.342C417.467 179.45 416.759 178.608 415.994 177.823L415.987 177.816C413.847 175.709 411.331 174.044 408.578 172.912C407.139 172.307 405.599 171.995 404.043 171.996C402.03 171.978 400.074 172.681 398.512 173.985C398.067 174.42 397.662 174.896 397.3 175.406C397.128 175.651 397.036 175.946 397.04 176.248C397.044 176.55 397.143 176.843 397.322 177.082C397.501 177.322 397.751 177.496 398.034 177.578C398.317 177.661 398.618 177.647 398.894 177.54C399.133 177.448 399.378 177.371 399.627 177.309C400.144 177.197 400.675 177.163 401.203 177.209C402.296 177.326 403.344 177.72 404.252 178.356C404.761 178.796 405.166 179.349 405.436 179.973C405.706 180.597 405.835 181.276 405.812 181.958C405.432 183.067 404.853 184.092 404.103 184.98C403.903 185.251 403.806 185.586 403.829 185.925C403.851 186.263 403.993 186.582 404.227 186.821L407.167 189.838C407.414 190.092 407.746 190.239 408.096 190.249C408.446 190.259 408.786 190.131 409.046 189.892C409.878 189.13 411.144 187.982 411.586 187.7C411.964 187.441 412.393 187.267 412.842 187.192C413.177 187.158 413.514 187.231 413.807 187.401C413.808 187.416 413.806 187.431 413.802 187.445C413.797 187.46 413.79 187.473 413.78 187.484L413.625 187.636L413.599 187.66C413.253 188.013 413.059 188.493 413.058 188.993C413.057 189.493 413.25 189.973 413.594 190.328L413.603 190.337L416.53 193.31C416.702 193.485 416.905 193.624 417.129 193.718C417.353 193.812 417.593 193.859 417.835 193.858C418.322 193.858 418.789 193.663 419.136 193.314L423.877 188.509C423.893 188.492 423.91 188.474 423.925 188.457C424.243 188.099 424.417 187.631 424.413 187.147C424.409 186.663 424.226 186.198 423.901 185.847Z" fill="white"/>
<path d="M88.9331 188.999C88.5948 188.999 88.2641 188.896 87.9828 188.704C87.7015 188.511 87.4823 188.237 87.3528 187.916C87.2234 187.595 87.1895 187.242 87.2555 186.902C87.3215 186.562 87.4844 186.249 87.7236 186.003L91.6455 181.979L87.7236 177.955C87.4028 177.626 87.2227 177.179 87.2227 176.714C87.2227 176.249 87.4028 175.802 87.7236 175.473C88.0444 175.144 88.4794 174.959 88.9331 174.959C89.3867 174.959 89.8218 175.144 90.1426 175.473L95.274 180.738C95.4328 180.901 95.5588 181.095 95.6448 181.308C95.7308 181.52 95.775 181.749 95.775 181.979C95.775 182.21 95.7308 182.438 95.6448 182.651C95.5588 182.864 95.4328 183.057 95.274 183.22L90.1426 188.485C89.9839 188.649 89.7954 188.778 89.5878 188.866C89.3803 188.954 89.1578 189 88.9331 188.999Z" fill="white"/>
<path d="M61.5656 194.263C61.341 194.263 61.1185 194.218 60.911 194.13C60.7035 194.041 60.5149 193.912 60.3561 193.749C60.1972 193.586 60.0713 193.393 59.9853 193.18C59.8993 192.967 59.8551 192.739 59.8551 192.508V190.753C59.8685 187.965 60.9534 185.296 62.8741 183.324C64.7947 181.352 67.396 180.238 70.1129 180.223H92.3542C92.8078 180.223 93.2429 180.408 93.5637 180.737C93.8845 181.066 94.0647 181.512 94.0647 181.978C94.0647 182.443 93.8845 182.89 93.5637 183.219C93.2429 183.548 92.8078 183.733 92.3542 183.733H70.118C68.3058 183.744 66.571 184.488 65.2901 185.803C64.0091 187.118 63.2855 188.899 63.2761 190.758V192.508C63.2761 192.739 63.2318 192.967 63.1459 193.18C63.0599 193.393 62.9339 193.586 62.7751 193.749C62.6163 193.912 62.4277 194.041 62.2202 194.13C62.0126 194.218 61.7902 194.263 61.5656 194.263Z" fill="white"/>
<path d="M75.2503 208.305C75.0256 208.305 74.8031 208.26 74.5955 208.172C74.388 208.083 74.1994 207.954 74.0408 207.791L68.9094 202.526C68.7505 202.363 68.6245 202.169 68.5385 201.956C68.4526 201.743 68.4083 201.515 68.4083 201.285C68.4083 201.054 68.4526 200.826 68.5385 200.613C68.6245 200.4 68.7505 200.207 68.9094 200.044L74.0408 194.779C74.3617 194.45 74.7966 194.265 75.2499 194.266C75.7033 194.266 76.138 194.451 76.4586 194.78C76.7792 195.109 76.9594 195.555 76.9596 196.02C76.9598 196.485 76.78 196.931 76.4597 197.26L72.5379 201.285L76.4597 205.309C76.6989 205.554 76.8618 205.867 76.9278 206.207C76.9938 206.548 76.9599 206.901 76.8305 207.221C76.701 207.542 76.4818 207.816 76.2005 208.009C75.9193 208.202 75.5886 208.305 75.2503 208.305Z" fill="white"/>
<path d="M71.8285 203.04C71.3749 203.04 70.9398 202.856 70.619 202.526C70.2983 202.197 70.118 201.751 70.118 201.285C70.118 200.82 70.2983 200.374 70.619 200.044C70.9398 199.715 71.3749 199.53 71.8285 199.53H94.0647C95.8768 199.519 97.6116 198.775 98.8925 197.46C100.173 196.145 100.897 194.364 100.907 192.505V190.755C100.907 190.29 101.087 189.843 101.408 189.514C101.728 189.185 102.163 189 102.617 189C103.071 189 103.506 189.185 103.827 189.514C104.147 189.843 104.328 190.29 104.328 190.755V192.51C104.314 195.298 103.229 197.967 101.309 199.939C99.3879 201.911 96.7866 203.025 94.0697 203.04L71.8285 203.04Z" fill="white"/>
<rect x="201" y="196" width="85" height="84.7637" rx="6" fill="#2CB67D" fill-opacity="0.2"/>
<g clip-path="url(#clip0_2520_8)">
<path d="M229.645 252.905L226.438 249.64C225.557 248.742 225.245 247.442 225.64 246.237C225.951 245.297 226.366 244.071 226.864 242.666H215.886C214.994 242.666 214.164 242.179 213.718 241.387C213.271 240.594 213.282 239.622 213.738 238.84L219.186 229.488C220.535 227.174 222.973 225.758 225.608 225.758H234.148C234.397 225.335 234.646 224.944 234.895 224.564C243.393 211.799 256.052 211.376 263.605 212.792C264.809 213.014 265.743 213.975 265.971 215.201C267.361 222.905 266.936 235.786 254.412 244.441C254.049 244.694 253.655 244.948 253.24 245.202V253.899C253.24 256.583 251.849 259.077 249.577 260.44L240.394 265.988C239.626 266.453 238.672 266.463 237.894 266.009C237.115 265.554 236.638 264.719 236.638 263.8V252.472C235.175 252.99 233.899 253.412 232.934 253.73C231.772 254.11 230.506 253.782 229.634 252.905H229.645ZM253.24 229.985C254.34 229.985 255.396 229.539 256.174 228.747C256.953 227.954 257.39 226.879 257.39 225.758C257.39 224.637 256.953 223.562 256.174 222.769C255.396 221.976 254.34 221.531 253.24 221.531C252.139 221.531 251.083 221.976 250.305 222.769C249.527 223.562 249.089 224.637 249.089 225.758C249.089 226.879 249.527 227.954 250.305 228.747C251.083 229.539 252.139 229.985 253.24 229.985Z" fill="#1ECD85"/>
</g>
<defs>
<filter id="filter0_f_2520_8" x="0" y="0" width="486.508" height="486.582" filterUnits="userSpaceOnUse" color-interpolation-filters="sRGB">
<feFlood flood-opacity="0" result="BackgroundImageFix"/>
<feBlend mode="normal" in="SourceGraphic" in2="BackgroundImageFix" result="shape"/>
<feGaussianBlur stdDeviation="92.5" result="effect1_foregroundBlur_2520_8"/>
</filter>
<clipPath id="clip0_2520_8">
<rect width="53.125" height="54.1045" fill="white" transform="translate(213.396 212.232)"/>
</clipPath>
</defs>
</svg>
