<svg width="428" height="221" viewBox="0 0 428 221" fill="none" xmlns="http://www.w3.org/2000/svg">
<path d="M0 15C0 6.71573 6.71573 0 15 0H413C421.284 0 428 6.71573 428 15V221H0V15Z" fill="#202020"/>
<path d="M0 15C0 6.71573 6.71573 0 15 0H59V221H0V15Z" fill="#262626"/>
<rect x="86" y="30" width="55" height="9" rx="4.5" fill="#D9D9D9"/>
<rect x="22" y="35" width="15" height="15" rx="7.5" fill="#D9D9D9"/>
<rect x="22" y="69" width="15" height="15" rx="7.5" fill="#D9D9D9"/>
<rect x="22" y="103" width="15" height="15" rx="7.5" fill="#D9D9D9"/>
<rect x="22" y="137" width="15" height="15" rx="7.5" fill="#D9D9D9"/>
<rect x="22" y="171" width="15" height="15" rx="7.5" fill="#D9D9D9"/>
<rect x="114" y="52" width="93" height="9" rx="4.5" fill="#2CB67D"/>
<rect x="130" y="100" width="74" height="9" rx="4.5" fill="#2CB67D"/>
<rect x="130" y="76" width="62" height="9" rx="4.5" fill="#2CB67D"/>
<rect x="129" y="129" width="96" height="9" rx="4.5" fill="#D9D9D9"/>
<rect x="119" y="158" width="96" height="9" rx="4.5" fill="#D9D9D9"/>
<rect x="119" y="182" width="65" height="9" rx="4.5" fill="#D9D9D9"/>
<rect x="225" y="158" width="127" height="9" rx="4.5" fill="#D9D9D9"/>
<rect x="235" y="129" width="53" height="9" rx="4.5" fill="#D9D9D9"/>
<rect x="215" y="100" width="33" height="9" rx="4.5" fill="#D9D9D9"/>
<rect x="220" y="52" width="177" height="9" rx="4.5" fill="#D9D9D9"/>
</svg>
