<svg width="124" height="33" viewBox="0 0 124 33" fill="none" xmlns="http://www.w3.org/2000/svg">
<path d="M2 3.73134C22.8599 3.73134 43.713 2 64.5835 2C77.0697 2 89.5059 2.43284 101.97 2.43284C105.416 2.43284 108.862 2.43284 112.308 2.43284C115.181 2.43284 118.82 1.88681 121.641 2.45688C123.059 2.7435 119.845 4.13627 119.446 4.16418C116.128 4.39633 112.491 6.16689 109.267 6.95357C96.8407 9.98566 84.1575 11.7211 72.1189 15.9469C69.6043 16.8296 67.1486 18.111 64.557 18.7844C64.3956 18.8264 62.3709 19.5114 63.1822 19.7222C66.8359 20.6716 72.2232 19.7463 75.9791 19.7463C86.2206 19.7463 96.2266 20.5216 106.438 21.0448C109.769 21.2154 113.058 21.6928 116.379 21.9345C118.489 22.088 117.156 22.843 116.115 23.209C110.556 25.1624 104.732 26.3546 99.167 28.3789C97.7377 28.8989 97.2326 29.1029 98.9555 29.5091C104.233 30.7534 109.86 30.6607 115.269 31" stroke="#2CB67D" stroke-width="3" stroke-linecap="round"/>
</svg>
