<svg width="57" height="48" viewBox="0 0 57 48" fill="none" xmlns="http://www.w3.org/2000/svg">
<path d="M55 2C53.3595 2.66204 52.1217 3.74187 50.7244 4.83899C46.1847 8.4034 41.409 11.8575 36.4777 14.7573C30.7772 18.1095 25.1841 19.6598 18.7237 18.852C15.4093 18.4375 11.4669 18.0111 9.47096 14.5935C7.60077 11.3912 13.2181 9.64737 14.8823 9.04289C21.5576 6.61837 33.2808 7.90797 33.0539 17.7965C32.8904 24.9231 24.7928 28.3069 19.659 30.1716C14.967 31.8758 7.80078 32.8355 7.80078 39.6713" stroke="#FFFFFE" stroke-width="3" stroke-linecap="round"/>
<path d="M2 40.8374C2.82715 41.1378 3.85288 42.2201 4.38198 43.0063C4.81841 43.6548 5.14521 44.2041 5.42409 44.9469C5.55976 45.3082 5.7487 45.6027 5.87071 45.9682C5.94609 46.1941 5.9205 46.5106 6.17949 46.4008C6.92861 46.0834 7.62871 45.5718 8.35194 45.1872C9.85232 44.3894 11.5723 43.7364 13.171 43.2166C13.9974 42.9479 14.5526 42.6759 15.3986 42.6759" stroke="#FFFFFE" stroke-width="3" stroke-linecap="round"/>
</svg>
